inDegrees=no
num_controls=7
num_derivatives=13
num_iterations=188
num_multipliers=7
num_parameters=0
num_slacks=7
num_states=26
objective=6.323456
objective_accelerations=0.713557
objective_balance=0.069097
objective_effort=0.568396
objective_height=4.856324
objective_ligament=0.116081
solver_duration=1951.763911
status=Solve_Succeeded
success=true
DataType=double
version=3
OpenSimVersion=4.4-2022-07-23-0e9fedc
endheader
time	/jointset/ground_pelvis/pelvis_tilt/value	/jointset/ground_pelvis/pelvis_tx/value	/jointset/ground_pelvis/pelvis_ty/value	/jointset/hip_l/hip_flexion_l/value	/jointset/hip_l/hip_adduction_l/value	/jointset/hip_l/hip_rotation_l/value	/jointset/back/lumbar_extension/value	/jointset/patellofemoral_l/patellar_flexion_l/value	/jointset/knee_l/knee_flexion_l/value	/jointset/knee_l/knee_adduction_l/value	/jointset/knee_l/knee_rotation_l/value	/jointset/ankle_l/ankle_angle_l/value	/jointset/subtalar_l/subtalar_angle_l/value	/jointset/ground_pelvis/pelvis_tilt/speed	/jointset/ground_pelvis/pelvis_tx/speed	/jointset/ground_pelvis/pelvis_ty/speed	/jointset/hip_l/hip_flexion_l/speed	/jointset/hip_l/hip_adduction_l/speed	/jointset/hip_l/hip_rotation_l/speed	/jointset/back/lumbar_extension/speed	/jointset/patellofemoral_l/patellar_flexion_l/speed	/jointset/knee_l/knee_flexion_l/speed	/jointset/knee_l/knee_adduction_l/speed	/jointset/knee_l/knee_rotation_l/speed	/jointset/ankle_l/ankle_angle_l/speed	/jointset/subtalar_l/subtalar_angle_l/speed	/forceset/tau_hip_flexion_l	/forceset/tau_hip_adduction_l	/forceset/tau_hip_rotation_l	/forceset/tau_knee_flexion_l	/forceset/tau_ankle_angle_l	/forceset/tau_subtalar_angle_l	/forceset/tau_lumbar_extension	lambda_cid13_p0	lambda_cid13_p1	lambda_cid13_p2	lambda_cid13_p3	lambda_cid13_p4	lambda_cid13_p5	lambda_cid14_p0	/jointset/ground_pelvis/pelvis_tilt/accel	/jointset/ground_pelvis/pelvis_tx/accel	/jointset/ground_pelvis/pelvis_ty/accel	/jointset/hip_l/hip_flexion_l/accel	/jointset/hip_l/hip_adduction_l/accel	/jointset/hip_l/hip_rotation_l/accel	/jointset/back/lumbar_extension/accel	/jointset/patellofemoral_l/patellar_flexion_l/accel	/jointset/knee_l/knee_flexion_l/accel	/jointset/knee_l/knee_adduction_l/accel	/jointset/knee_l/knee_rotation_l/accel	/jointset/ankle_l/ankle_angle_l/accel	/jointset/subtalar_l/subtalar_angle_l/accel	gamma_cid13_p0	gamma_cid13_p1	gamma_cid13_p2	gamma_cid13_p3	gamma_cid13_p4	gamma_cid13_p5	gamma_cid14_p0
1	-0.1823057988592623	-0.06611840573374209	0.624353218975308	1.551385341417691	-0.3185102325429955	0.09543125513251829	-0.9599295911694017	1.544437504674513	1.544437504674304	-0.02416928535477352	-0.1745321553527351	0.284241651632138	0.0796021821014513	0.09575205144947699	0.0210965797277287	0.07524835998766534	-0.2996167952526358	-0.01074298480266453	-0.06208721947857866	2.666375207779462e-05	-0.1617713145627399	-0.1617713145627408	-0.007371338848615488	8.750105601358157e-06	0.03327138433504515	0.00195560811343029	-0.4364468740950433	0.009469137151827347	0.001021430540573056	-0.3762686755795742	0.02163887106377172	0.01949700265794834	0.4608861503912952	-45.97896397350726	1.704470102813317	-3.149235462884219	17.58881044934335	-821.1364250346602	-63.14063844388846	-0.0398149732850519	0.9249371925890755	-0.07400786469271223	1.891366134170819	-5.89101455499322	-0.2163418532412729	-1.727414637209211	-0.01208526911124608	-5.589485255115579	-5.589485255115293	-0.5772432359978051	-0.02635888397605085	-1.018966315940691	-0.7311228342991734	-8.48848994542247e-09	1.450700618715049e-08	3.224103411164161e-08	4.665082078000421e-10	-2.193961926174092e-08	1.539470608937272e-07	-1.73725493144654e-08
1.01	-0.1813022982981728	-0.06591108406443344	0.6252000410908097	1.548095443726128	-0.3186276262721332	0.09472360656628206	-0.9599294836788778	1.542540681953328	1.542540681953133	-0.02427032106291801	-0.1745320657631605	0.2845234184450821	0.07958633225660296	0.1049574749782764	0.02037491847929871	0.09410182817988899	-0.3583354608476993	-0.01272447588451921	-0.0794353339287939	-4.509486184459879e-06	-0.2175804232311898	-0.2175804232311919	-0.01282901698150929	7.216304599973303e-06	0.02305915890609262	-0.005121245195731688	-0.4354404188670027	0.009621088106714863	0.0009702746760804246	-0.376184252199991	0.02165485491906776	0.01969933855808009	0.4603276485028089	-45.92096091561252	1.589915397148016	-3.112097654776178	17.4262585375174	-820.5817350627919	-63.27802509308947	-0.03984616960878164	0.9197540814810634	-0.07017055220307494	1.880196303631941	-5.858203767159676	-0.1873611313434662	-1.737454286878745	0.001465072954877953	-5.574697856670833	-5.574697856671174	-0.529027858267192	0.01267247176940066	-1.025774778823556	-0.6953233738101069	-1.318745814671683e-08	1.218653670411762e-09	5.538400614908818e-08	2.563116640083434e-10	-2.802952244025205e-08	1.772238718284049e-07	-2.417896144378342e-08
1.02	-0.1802064616721057	-0.06571076406706609	0.6262349697166104	1.544219177137548	-0.3187644965912245	0.09384268796795461	-0.9599296682359598	1.540086153308666	1.540086153308476	-0.02442573310365688	-0.174532046891539	0.2847023781792463	0.07949984251974598	0.114219264445311	0.01969624533946943	0.1128696620474822	-0.4168905746586274	-0.0146383027938117	-0.09674122589705209	-3.174575889845442e-05	-0.273312499258085	-0.27331249925809	-0.01824660536768346	-5.393499138529314e-06	0.01270996857909942	-0.0121723702883099	-0.4344339636389156	0.009773039061611441	0.0009191188115998722	-0.3760998288204071	0.02167083877435533	0.01990167445822	0.4597691466143643	-45.87216465450133	1.477820898085193	-3.076320715892431	17.31832869959851	-820.1444217827988	-63.38648076887758	-0.03987829633289545	0.9362103802360568	-0.06541024297253881	1.874239269244733	-5.858304198166135	-0.2028090187288955	-1.718970140817836	-0.01129787600188053	-5.574078726804651	-5.574078726804704	-0.5692252866539054	-0.02857408452358582	-1.046359295548784	-0.7259771909824813	-1.753007979242307e-08	-9.967744901501867e-09	7.805521411833134e-08	4.377501715027844e-10	-3.346177553919881e-08	1.995655283200115e-07	-3.048328065753879e-08
1.03	-0.1790176144851341	-0.0655169727211516	0.6274570708069076	1.53975825793229	-0.3189201145902747	0.09278900884659833	-0.9599301461706864	1.537074851505016	1.537074851505005	-0.02463508824100977	-0.1745321838652254	0.2847771500326357	0.07934305001640238	0.123570277751903	0.01907338720999445	0.1315286860766738	-0.4752583477453713	-0.01646724243460108	-0.113979072242705	-6.707559656326679e-05	-0.3289193336569692	-0.3289193336569704	-0.02361259634786829	-1.811410995067177e-05	0.002220976928902743	-0.01917155876585772	-0.4331490795337143	0.009945067328359704	0.0008425797819856719	-0.3757612182518784	0.0218586187173266	0.02019058771038893	0.4590208475595542	-45.73343436168381	1.301194681988749	-3.017480561439102	17.06545904708569	-819.3102585781734	-63.55097288663051	-0.03992325952131803	0.9375585058177134	-0.05901896717507929	1.85844566913918	-5.820780860731549	-0.1702347549108165	-1.723891713792544	-0.0001357134299784812	-5.549699229576662	-5.549699229576095	-0.5185363302970721	0.01298776624552161	-1.053685381610524	-0.684712286424476	-2.186906524878657e-08	-2.113269496377442e-08	1.007216081685112e-07	6.231849550307596e-10	-3.888731792304797e-08	2.21897642419342e-07	-3.678247647419657e-08
1.04	-0.1777346548251071	-0.06532906903037994	0.6288651044773733	1.534714707596802	-0.3190934816493646	0.09156341129531433	-0.9599310744375373	1.533508338670748	1.533508338670918	-0.02489775335348282	-0.1745323262818593	0.284746328713152	0.07911670110622666	0.1330417590563733	0.0185187143109027	0.1500561780811735	-0.5334168007042388	-0.01818811480166454	-0.1311249118824986	-0.0001218124654508025	-0.384354705381708	-0.3843547053817059	-0.0289086003919043	-6.482096539323705e-06	-0.008408665995509518	-0.02608365165474608	-0.4318641954285235	0.01011709559510649	0.0007660407523752598	-0.3754226076833496	0.02204639866030009	0.02047950096255682	0.4582725485047348	-45.60422461902577	1.127061279216808	-2.959980987358529	16.86797558293082	-818.5967383644047	-63.68823822076752	-0.03996942773980587	0.9603039798116582	-0.0517731968958853	1.84793286430637	-5.816440172590829	-0.1811955639836303	-1.700568799645905	-0.01517928224398314	-5.539786191975579	-5.539786191975725	-0.5552278994241092	-0.02370355967872072	-1.074489550391879	-0.7085580732504699	-3.022769558099589e-08	-3.53321080974482e-08	1.231179128124071e-07	7.096895866892548e-09	-4.612548626181963e-08	2.490691027535005e-07	-4.421629732257754e-08
1.05	-0.1763569875459639	-0.06514613072874557	0.6304577236076934	1.529090991346966	-0.3192835179366628	0.09016682750377963	-0.9599303953636192	1.529388322647651	1.529388322647738	-0.02521303429301766	-0.1745322451696652	0.284608751317534	0.07882179296996486	0.1424519383473101	0.01810466693626949	0.1684429714790137	-0.5912570010611941	-0.01980478371513529	-0.1481769140493278	0.0004786434060079182	-0.4396216808157352	-0.4396216808157345	-0.03413985696508866	1.867527003646109e-05	-0.01910617352121721	-0.03287585015832689	-0.43229811233797	0.01039613662788534	0.0006538900040018302	-0.3745856529639895	0.02205394813980343	0.02086317310896584	0.4595442453931438	-45.57314419385971	0.9146614022308106	-2.880053155811298	16.20667148488481	-818.9809556039853	-63.80247477856503	-0.04002210487386412	0.9254062568766676	-0.0308595488257665	1.830340344212454	-5.757398916866845	-0.1497590531230744	-1.705317633051673	0.1308104232658804	-5.516120043240579	-5.516120043240725	-0.5059499947412135	0.01505674390347021	-1.067290896683915	-0.6612407853261145	-3.871193981557536e-08	-4.962634820210325e-08	1.455057771623567e-07	1.376711540776473e-08	-5.342029916168261e-08	2.763917926574974e-07	-5.168557520319986e-08
